<svg data-v-fde0c5aa="" xmlns="http://www.w3.org/2000/svg" viewBox="0 0 300 300" class="iconLeft"><!----><defs data-v-fde0c5aa=""><linearGradient data-v-fde0c5aa="" gradientTransform="rotate(25)" id="fc73d5f5-073f-467b-842e-1f74532b15aa" x1="0%" y1="0%" x2="100%" y2="0%"><stop data-v-fde0c5aa="" offset="0%" stop-color="#395ECA" stop-opacity="1"></stop><stop data-v-fde0c5aa="" offset="100%" stop-color="#848BD8" stop-opacity="1"></stop></linearGradient></defs><rect data-v-fde0c5aa="" fill="url(#fc73d5f5-073f-467b-842e-1f74532b15aa)" x="0" y="0" width="300px" height="300px" class="logo-background-square"></rect><defs data-v-fde0c5aa=""><!----></defs><g data-v-fde0c5aa="" id="9892da35-bf59-47ca-a9ef-4b6133a27688" fill="#ffffff" transform="matrix(2.6881757754266253,0,0,2.6881757754266253,95.91374372048303,131.89513643450255)"><path d="M1.76 1.53L6.51 1.53L6.51 1.09L1.26 1.09L1.26 10.50L1.76 10.50L1.76 6.27L6.15 6.27L6.15 5.84L1.76 5.84ZM8.74 10.50L9.23 10.50L9.23 3.28L8.74 3.28ZM8.67 1.39L9.30 1.39L9.30 0.60L8.67 0.60ZM20.19 7.87C20.19 6.69 19.35 5.64 17.71 5.54C19.08 5.31 19.64 4.30 19.64 3.30C19.64 1.71 18.44 1.09 16.46 1.09L14.48 1.09L14.48 10.50L16.86 10.50C18.63 10.50 20.19 9.77 20.19 7.87ZM19.67 7.85C19.67 9.38 18.55 10.07 16.87 10.07L14.98 10.07L14.98 5.78L16.69 5.78C18.69 5.78 19.67 6.51 19.67 7.85ZM19.14 3.33C19.14 4.42 18.48 5.35 16.62 5.35L14.98 5.35L14.98 1.51L16.66 1.51C18.28 1.51 19.14 2.20 19.14 3.33ZM28.41 10.22L27.85 10.22C27.40 10.22 27.29 10.00 27.29 9.60L27.29 5.54C27.29 3.93 26.43 3.14 24.79 3.14C23.24 3.14 22.43 3.86 22.26 5.05L22.75 5.10C22.93 4.00 23.58 3.54 24.78 3.54C26.17 3.54 26.80 4.21 26.80 5.60L26.80 6.33L25.09 6.33C23.11 6.33 21.94 7.07 21.94 8.57C21.94 9.79 22.72 10.64 24.21 10.64C25.55 10.64 26.43 10.01 26.80 8.83L26.80 9.63C26.80 10.22 27.01 10.64 27.75 10.64C28.04 10.64 28.28 10.63 28.41 10.61ZM24.21 10.23C23.06 10.23 22.41 9.56 22.41 8.55C22.41 7.25 23.45 6.72 25.21 6.72L26.80 6.72L26.80 7.03C26.80 8.82 26.01 10.23 24.21 10.23ZM35.01 10.50L35.49 10.50L35.49 5.60C35.49 3.72 34.48 3.14 33.14 3.14C31.82 3.14 30.97 3.98 30.72 5.07L30.69 3.28L30.24 3.28C30.27 4.07 30.27 4.42 30.27 5.03L30.27 10.50L30.74 10.50L30.74 6.43C30.74 4.55 31.74 3.56 33.04 3.56C34.16 3.56 35.01 4.05 35.01 5.66ZM42.60 10.50L43.18 10.50L39.98 6.59L43.08 3.28L42.46 3.28L38.63 7.38L38.63-0.24L38.15-0.24L38.15 10.50L38.63 10.50L38.63 7.94L39.66 6.93ZM44.77 10.50L45.26 10.50L45.26 3.28L44.77 3.28ZM44.70 1.39L45.33 1.39L45.33 0.60L44.70 0.60ZM52.71 10.50L53.19 10.50L53.19 5.60C53.19 3.72 52.18 3.14 50.83 3.14C49.52 3.14 48.66 3.98 48.41 5.07L48.38 3.28L47.94 3.28C47.96 4.07 47.96 4.42 47.96 5.03L47.96 10.50L48.44 10.50L48.44 6.43C48.44 4.55 49.43 3.56 50.74 3.56C51.86 3.56 52.71 4.05 52.71 5.66ZM58.00 10.63C59.53 10.63 60.26 9.58 60.54 8.58L60.52 8.81L60.52 10.82C60.52 12.54 59.67 13.30 58.10 13.30C56.87 13.30 56.24 12.80 56.01 12.03L55.54 12.11C55.75 12.96 56.48 13.71 58.11 13.71C60.00 13.71 61.00 12.80 61.00 10.82L61.00 4.63L61.04 3.28L60.55 3.28L60.52 4.93C60.21 3.74 59.33 3.14 58.04 3.14C56.14 3.14 55.29 4.42 55.29 6.83C55.29 9.38 56.07 10.63 58.00 10.63ZM60.52 6.76C60.52 9.13 59.53 10.21 58.13 10.21C56.48 10.21 55.78 9.20 55.78 6.82C55.78 4.55 56.56 3.54 58.11 3.54C59.79 3.54 60.52 4.68 60.52 6.76Z"></path></g><defs data-v-fde0c5aa=""><!----></defs><g data-v-fde0c5aa="" id="f4621811-db27-41e5-ab45-c16796f63657" stroke="none" fill="#ffffff" transform="matrix(1.7578149166159025,0,0,1.7578149166159025,35.025383920087634,121.87496133414555)"><path d="M2.83 18.247l26.34-9.124L2.83 0zM29.17 32V13.753L2.83 22.877z"></path></g><!----></svg>